<svg viewBox="0 0 512 260" xmlns="http://www.w3.org/2000/svg">
<title>Resting cocker spaniel</title>
<desc>Simple SVG of a resting cocker spaniel with open eyes and tongue showing.</desc>

<path fill="#E5AE61" d="M115 150 C95 95, 125 55, 205 48 C255 44, 290 60, 328 58 C390 54, 450 75, 462 128 C473 175, 452 208, 404 210 L170 210 C130 210, 105 188, 108 165 C110 158, 112 154, 115 150 Z"/>
<path fill="#D69342" d="M104 152 C58 162, 42 195, 58 220 C71 239, 111 244, 136 230 C149 222, 153 206, 144 192 C134 177, 122 165, 104 152 Z"/>
<path fill="#D69342" d="M70 188 C52 182, 40 184, 31 194 C42 194, 49 198, 57 206 C61 200, 65 194, 70 188 Z"/>

<circle cx="377" cy="123" r="66" fill="#E5AE61"/>

<path fill="#D69342" d="M438 102 C465 104, 485 123, 490 148 C495 170, 491 196, 477 201 C468 205, 457 202, 448 195 C453 179, 455 161, 452 141 C449 126, 444 114, 438 102 Z"/>
<path fill="#D69342" d="M309 87 C283 92, 266 112, 263 139 C260 164, 268 196, 284 208 C293 215, 306 214, 320 208 C311 190, 308 170, 309 150 C310 126, 314 106, 309 87 Z"/>

<ellipse cx="374" cy="155" rx="48" ry="30" fill="#EDBD74"/>

<circle cx="352" cy="118" r="12" fill="#3C220F"/>
<circle cx="405" cy="118" r="12" fill="#3C220F"/>
<circle cx="347" cy="112" r="4" fill="#FFFFFF"/>
<circle cx="400" cy="112" r="4" fill="#FFFFFF"/>

<ellipse cx="377" cy="145" rx="18" ry="13" fill="#1F1B17"/>

<path d="M377 156 L377 168" stroke="#3C220F" stroke-width="5"/>
<path d="M377 168 C365 181, 348 181, 339 169" stroke="#3C220F" stroke-width="5" fill="none"/>
<path d="M377 168 C389 181, 406 181, 415 169" stroke="#3C220F" stroke-width="5" fill="none"/>

<path fill="#E9838B" d="M365 170 C364 188, 390 190, 390 171 C384 176, 371 176, 365 170 Z"/>

<ellipse cx="320" cy="194" rx="34" ry="20" fill="#EDBD74"/>
<ellipse cx="423" cy="194" rx="34" ry="20" fill="#EDBD74"/>

</svg>
